<svg id="9bb7cb5a-053e-4e46-a6c7-edf23260fa1a" data-name="Layer 1" xmlns="http://www.w3.org/2000/svg" viewBox="0 0 484.19 171.28" height="171.28" width="484.19"><defs><style>.\30 68ff941-3546-4353-a3f3-e8587efb5411{fill:#fff}.d6abca85-f835-4f84-bc41-2a8c71659a2c{fill:#e31837}.\31 86c350d-7bfa-48fa-81b6-296421d416b7{fill:#231f20}</style></defs><title>rutgersshield</title><path class="068ff941-3546-4353-a3f3-e8587efb5411" d="M0 13.26V89c.28 12.67 4.42 23.58 12.29 32.44 14 15.76 35.24 19.67 37.61 20.07l.33.05.47.07.47-.07c.95-.14 23.35-3.58 38-20.12a47.66 47.66 0 0 0 8-12.43 52.4 52.4 0 0 0 4.25-20V13.26z" transform="translate(0 -13.26)"/><path class="d6abca85-f835-4f84-bc41-2a8c71659a2c" d="M65.83 18.77h-8.07L56.88 41l.71.14z" transform="translate(0 -13.26)"/><path class="d6abca85-f835-4f84-bc41-2a8c71659a2c" d="M78.99 33.93l16.94-12.31V6.54L76 33.93h2.99z"/><path class="d6abca85-f835-4f84-bc41-2a8c71659a2c" d="M69.55 46.22l25.36-27.45H81.42l-12.49 27zM63.82 43.07l14.89-24.3h-9.78l-5.78 24z" transform="translate(0 -13.26)"/><path class="d6abca85-f835-4f84-bc41-2a8c71659a2c" d="M95.93 33.93V25.3l-9.35 8.63h9.35z"/><path class="d6abca85-f835-4f84-bc41-2a8c71659a2c" d="M50.7 40.42h.42l3.42-21.66H47l3.4 21.66zM44.62 41l-.88-22.21h-8.07l8.24 22.35z" transform="translate(0 -13.26)"/><path class="d6abca85-f835-4f84-bc41-2a8c71659a2c" d="M25.49 33.93L5.57 6.54v15.08l16.94 12.31h2.98z"/><path class="d6abca85-f835-4f84-bc41-2a8c71659a2c" d="M32.56 45.81l-12.49-27H6.58l25.37 27.41zM38.35 42.8l-5.78-24h-9.79l14.9 24.27z" transform="translate(0 -13.26)"/><path class="d6abca85-f835-4f84-bc41-2a8c71659a2c" d="M5.57 25.3v8.63h9.34L5.57 25.3z"/><path class="186c350d-7bfa-48fa-81b6-296421d416b7" d="M0 13.26V89c.28 12.67 4.42 23.58 12.29 32.44 14 15.76 35.24 19.67 37.61 20.07l.33.05.47.07.47-.07c.95-.14 23.35-3.58 38-20.12a47.66 47.66 0 0 0 8-12.43 52.4 52.4 0 0 0 4.25-20V13.26zm98.83 75.66a49.78 49.78 0 0 1-4 19 45.11 45.11 0 0 1-7.55 11.76C73.19 135.57 51.71 138.85 50.8 139H50.33c-2.28-.38-22.67-4.13-36.1-19.23C6.77 111.32 2.85 101 2.58 88.91V15.84h96.25z" transform="translate(0 -13.26)"/><path class="d6abca85-f835-4f84-bc41-2a8c71659a2c" d="M23.66 67.44v2.73h2.67v-2.5l-.02-.23h-2.65z"/><path class="d6abca85-f835-4f84-bc41-2a8c71659a2c" d="M18.6 78.78v.17h7.66V70.1l-.32.12a5.58 5.58 0 0 1-1.66.36h-.44a9.07 9.07 0 0 1-3.84-.84l-.37-.18a3.2 3.2 0 0 0-1.28-.27 3.23 3.23 0 0 0-3.23 3.23c0 1.05.2 1.43 1.53 2.88a8.45 8.45 0 0 1 1.95 3.38z" transform="translate(0 -13.26)"/><path class="d6abca85-f835-4f84-bc41-2a8c71659a2c" d="M33.33 67.44H36v2.73h-2.67z"/><path class="d6abca85-f835-4f84-bc41-2a8c71659a2c" d="M5.58 89c.26 11.3 3.92 21 10.9 28.85 11.1 12.48 27.53 16.82 32.79 17.93V50.11H5.58zm13.68 10.16H15v-.33l.83-.1c.55-.06.55-.18.55-1.53v-3.3c0-1.5-.09-1.63-.34-1.63a2.47 2.47 0 0 0-.43.05l-.83.14-.1-.33c.54-.21 2.79-1 3-1.05l.19.14v6c0 1.35 0 1.46.55 1.53l.83.1zm19.5-11.61v.81H16v-.81zM16 86.72v-.82h22.76v.82zM24.44 96a14.56 14.56 0 0 0-1.23 3.43l-.14.09a2.83 2.83 0 0 1-1.26-.91c.14-.88 1.69-2.57 2.78-4.31a5.44 5.44 0 0 0 .81-1.85H23c-1.4 0-1.29 0-1.67 1l-.33-.1a5.22 5.22 0 0 1 .55-2.05h5l.11.14c-.29 1.25-.87 1.85-2.22 4.56zm6.1 3.34c-1.5 0-2.78-1.09-2.78-3.39 0-3.39 2.23-4.87 4.26-4.87a3.17 3.17 0 0 1 1.2.23l-.1.35a2.69 2.69 0 0 0-.8-.1c-1.7 0-3 1.4-3 4.23 0 1.79.51 3.08 1.58 3.08.83 0 1.14-.85 1.14-1.64C32 96 31.34 95 30.37 95H30v-.23a2.08 2.08 0 0 1 1.38-.53 2.06 2.06 0 0 1 2 2.1 2.71 2.71 0 0 1-2.84 3.01zm6.9 0c-1.5 0-2.78-1.09-2.78-3.39 0-3.39 2.23-4.87 4.26-4.87a3.17 3.17 0 0 1 1.2.23l-.1.35a2.69 2.69 0 0 0-.8-.1c-1.7 0-3 1.4-3 4.23 0 1.79.51 3.08 1.58 3.08.83 0 1.14-.85 1.14-1.64 0-1.2-.69-2.27-1.65-2.27h-.33l-.05-.23a2 2 0 0 1 3.36 1.58 2.71 2.71 0 0 1-2.84 3.04zm-10-37.81a2 2 0 1 1-2 2 2 2 0 0 1 1.97-1.99zm-9 5.38a5.6 5.6 0 0 1 2.35.51l.32.16a6.66 6.66 0 0 0 2.82.62h.33a3.1 3.1 0 0 0 2.55-1.67h1.32a3.1 3.1 0 0 0 2.56 1.67H31a6.68 6.68 0 0 0 2.64-.54 5.72 5.72 0 0 1 .65-.32 5.65 5.65 0 0 1 7.82 5.22A6.67 6.67 0 0 1 40 77l-.09.1a6.1 6.1 0 0 0-1.58 3.77v.69a6.06 6.06 0 0 0 .47 2V85H16v-1.31a6.06 6.06 0 0 0 .52-2.46 6.16 6.16 0 0 0-.07-.94 6.08 6.08 0 0 0-1.52-3.18l-.1-.11a6.57 6.57 0 0 1-2.09-4.43 5.66 5.66 0 0 1 5.65-5.65z" transform="translate(0 -13.26)"/><path class="d6abca85-f835-4f84-bc41-2a8c71659a2c" d="M18.82 67.44h2.67v2.73h-2.67z"/><path class="d6abca85-f835-4f84-bc41-2a8c71659a2c" d="M36.21 78.78a8.46 8.46 0 0 1 1.9-3.37c.16-.19 1.55-1.86 1.55-2.89a3.23 3.23 0 0 0-4.47-3l-.37.18-.29.15a9.09 9.09 0 0 1-3.56.72h-.48a5.52 5.52 0 0 1-1.66-.37l-.32-.12v8.86h7.65z" transform="translate(0 -13.26)"/><path class="d6abca85-f835-4f84-bc41-2a8c71659a2c" d="M28.5 67.44h2.67v2.73H28.5z"/><path class="d6abca85-f835-4f84-bc41-2a8c71659a2c" d="M66.31 83.86a9.5 9.5 0 0 0 1.37-.21 6 6 0 0 1 1.26-.17 5.75 5.75 0 0 1 2.37.5V83a6.7 6.7 0 0 0-2.39-.43 7 7 0 0 0-1.44.19 8.68 8.68 0 0 1-1.24.19 8 8 0 0 1-2.24-.21v1a8.89 8.89 0 0 0 2.31.12zM66.31 81.27a9.5 9.5 0 0 0 1.37-.21 6 6 0 0 1 1.26-.17 5.75 5.75 0 0 1 2.37.5v-1a6.7 6.7 0 0 0-2.39-.43 7 7 0 0 0-1.44.19 8.68 8.68 0 0 1-1.24.19 8 8 0 0 1-2.24-.18v1a8.88 8.88 0 0 0 2.31.11zM66.31 78.68a9.46 9.46 0 0 0 1.37-.21 6 6 0 0 1 1.25-.17 5.68 5.68 0 0 1 2.37.5v-1a6.39 6.39 0 0 0-2.39-.43 6.94 6.94 0 0 0-1.44.19 8.67 8.67 0 0 1-1.25.19 8 8 0 0 1-2.22-.18v1a8.9 8.9 0 0 0 2.31.11zM66.31 73.51a9.5 9.5 0 0 0 1.37-.21 6 6 0 0 1 1.26-.17 5.73 5.73 0 0 1 2.37.5v-1a6.39 6.39 0 0 0-2.39-.43 7 7 0 0 0-1.44.19 8.68 8.68 0 0 1-1.24.19 8 8 0 0 1-2.24-.19v1a8.89 8.89 0 0 0 2.31.12zM66.31 76.1a9.52 9.52 0 0 0 1.37-.21 5.93 5.93 0 0 1 1.26-.17 5.8 5.8 0 0 1 2.37.5v-1a6.37 6.37 0 0 0-2.39-.43 6.93 6.93 0 0 0-1.44.19 8.6 8.6 0 0 1-1.24.19A8 8 0 0 1 64 75v1a8.9 8.9 0 0 0 2.31.1zM66.31 70.92a9.47 9.47 0 0 0 1.37-.21 6 6 0 0 1 1.25-.17 5.76 5.76 0 0 1 2.37.5V70a6.59 6.59 0 0 0-2.39-.43 7 7 0 0 0-1.44.19 8.67 8.67 0 0 1-1.25.19 8 8 0 0 1-2.22-.14v1a8.92 8.92 0 0 0 2.31.11z" transform="translate(0 -13.26)"/><path class="d6abca85-f835-4f84-bc41-2a8c71659a2c" d="M66.59 87.39a9.09 9.09 0 0 1 6.23.77v-.78l-.23-.13a6.84 6.84 0 0 0-3.55-1h-.72a11.75 11.75 0 0 0-1.58.18 12.38 12.38 0 0 1-4.9-.25l-.32-.07V68.66l-.83-.22V86.8a13 13 0 0 0 5.9.59z" transform="translate(0 -13.26)"/><path class="d6abca85-f835-4f84-bc41-2a8c71659a2c" d="M66.59 89.1a9.11 9.11 0 0 1 6.23.76v-.76l-.11-.1h-.13a8.23 8.23 0 0 0-5.85-.77 14.15 14.15 0 0 1-6.58-.7l-.29-.09V69.17L59 68.9V88c3.1 1.08 5.63 1.47 7.59 1.1zM80.52 81.06a9.5 9.5 0 0 0 1.37.21 8.88 8.88 0 0 0 2.31-.14v-1a8 8 0 0 1-2.25.16 8.68 8.68 0 0 1-1.24-.19 7 7 0 0 0-1.44-.19 6.7 6.7 0 0 0-2.39.43v1a5.75 5.75 0 0 1 2.37-.5 6 6 0 0 1 1.27.22z" transform="translate(0 -13.26)"/><path class="d6abca85-f835-4f84-bc41-2a8c71659a2c" d="M81.61 87.39a13 13 0 0 0 5.91-.59V68.44l-.83.22v17.51l-.32.07a12.38 12.38 0 0 1-4.9.25 11.75 11.75 0 0 0-1.58-.18h-.72a6.84 6.84 0 0 0-3.55 1l-.23.13v.78a9.09 9.09 0 0 1 6.22-.83z" transform="translate(0 -13.26)"/><path class="d6abca85-f835-4f84-bc41-2a8c71659a2c" d="M80.52 78.47a9.46 9.46 0 0 0 1.37.21 8.9 8.9 0 0 0 2.31-.14v-1a8 8 0 0 1-2.25.16 8.67 8.67 0 0 1-1.25-.19 6.94 6.94 0 0 0-1.44-.19 6.39 6.39 0 0 0-2.39.43v1a5.68 5.68 0 0 1 2.37-.5 6 6 0 0 1 1.28.22z" transform="translate(0 -13.26)"/><path class="d6abca85-f835-4f84-bc41-2a8c71659a2c" d="M52.18 135.77c5.25-1.11 21.69-5.45 32.79-17.93 7-7.85 10.64-17.55 10.9-28.85V50.11H52.18zM67.71 97L66 96.11l-1.65.89.32-1.87-1.36-1.32 1.88-.27.84-1.7.84 1.7 1.88.27-1.36 1.32zm16.13 0l-1.68-.88-1.67.88.32-1.87-1.36-1.32 1.88-.27.84-1.7.84 1.7 1.88.27-1.36 1.32zm-9.27-12.38V68.5a8.89 8.89 0 0 1 1.43-.84 8.25 8.25 0 0 1 3.38-.66 12.28 12.28 0 0 1 2.23.22 7.77 7.77 0 0 0 1 .11 13.11 13.11 0 0 0 3.58-.33l.5-.11v1c.37-.09.74-.19 1.12-.31l.53-.16v1l1.08-.38.55-.21v20.71l-.26.1c-3.31 1.24-6.08 1.67-8.24 1.27a8.29 8.29 0 0 0-5.72.7h-1.18zm.37 11.2l1.88.27-1.36 1.32.32 1.87-1.68-.88-1.68.88.32-1.87-1.36-1.32 1.88-.27.84-1.7zM58.23 67.73l.55.21 1.08.38v-1l.53.16c.38.12.76.22 1.12.31v-1L62 67a13.11 13.11 0 0 0 3.62.36 7.78 7.78 0 0 0 1-.11 12.28 12.28 0 0 1 2.2-.25 8.25 8.25 0 0 1 3.42.68 8.89 8.89 0 0 1 1.39.84V90.6h-1.17a8.29 8.29 0 0 0-5.72-.7c-2.16.4-4.93 0-8.24-1.27l-.26-.1z" transform="translate(0 -13.26)"/><path class="d6abca85-f835-4f84-bc41-2a8c71659a2c" d="M81.61 89.1c2 .36 4.49 0 7.54-1.13V68.9l-.82.27v18.24l-.29.09a14.15 14.15 0 0 1-6.58.7 8.23 8.23 0 0 0-5.85.77l-.12.07-.11.07v.76a9.11 9.11 0 0 1 6.23-.77z" transform="translate(0 -13.26)"/><path class="d6abca85-f835-4f84-bc41-2a8c71659a2c" d="M80.52 83.65a9.5 9.5 0 0 0 1.37.21 8.89 8.89 0 0 0 2.31-.14v-1a8 8 0 0 1-2.25.16 8.68 8.68 0 0 1-1.24-.19 7 7 0 0 0-1.44-.19 6.7 6.7 0 0 0-2.39.43v1a5.75 5.75 0 0 1 2.37-.5 6 6 0 0 1 1.27.22zM80.52 73.3a9.5 9.5 0 0 0 1.37.21 8.89 8.89 0 0 0 2.31-.14v-1a8 8 0 0 1-2.25.16 8.68 8.68 0 0 1-1.24-.19 7 7 0 0 0-1.44-.19 6.39 6.39 0 0 0-2.39.43v1a5.73 5.73 0 0 1 2.37-.5 6 6 0 0 1 1.27.22zM80.52 70.71a9.47 9.47 0 0 0 1.37.21 8.92 8.92 0 0 0 2.31-.14v-1A8 8 0 0 1 82 70a8.67 8.67 0 0 1-1.25-.19 7 7 0 0 0-1.44-.19 6.59 6.59 0 0 0-2.39.43v1a5.76 5.76 0 0 1 2.37-.5 6 6 0 0 1 1.23.16zM80.52 75.89a9.52 9.52 0 0 0 1.37.21 8.9 8.9 0 0 0 2.31-.1v-1a8 8 0 0 1-2.25.16 8.6 8.6 0 0 1-1.24-.16 6.93 6.93 0 0 0-1.44-.19 6.37 6.37 0 0 0-2.39.43v1a5.8 5.8 0 0 1 2.37-.5 5.93 5.93 0 0 1 1.27.15zM229.15 97.8l2.44-.73v-41c0-9.92 0-10.33 3.17-10.66l2.93-.24v-1.76h-19.76v1.75l2.92.24c3.17.33 3.17.73 3.17 10.66v33a19.56 19.56 0 0 1-14.71 6.51c-12.6 0-14.55-7.73-14.55-19.36V56.06c0-9.92 0-10.33 3.17-10.66l2.92-.24v-1.75H181.1v1.75l2.93.24c3.17.33 3.17.73 3.17 10.66v21.48c0 11.06 1.38 20.74 18.21 20.74 10.81 0 17.56-5.12 18.7-5.12s1.87 1.14 3 2.27zM250.93 97.06h22.52v-1.75l-2.93-.24c-4.52-.33-4.52-.73-4.52-10.66V45.69h4.23c11.47 0 11.63 1.22 13.42 10.66h1.95c0-.33-.4-11.14-.73-12.93h-45.33c-.33 1.79-.73 12.6-.73 12.93h2c1.78-9.44 1.95-10.66 13.41-10.66h4.23v38.72c0 9.93 0 10.33-4.47 10.66l-3 .24zM335.6 86.36c0-7.91 0-8.32 1.54-8.65l2.93-.24v-1.75h-20.65v1.75l2.93.24C328 78 328 78.45 328 88.4v6.14a41.58 41.58 0 0 1-9.51 1.06c-15.93 0-23-12.88-23-26.74 0-15.2 8.37-24 21.7-24 13.9 0 15 9.91 15.78 13.17l2.19-.49c-.36-4-.79-8.56-1.3-12-2.11-1.3-8.29-3.33-16.58-3.33-12.85 0-30.32 6.5-30.32 28.21 0 20.72 14.63 27.89 31 27.89a53.87 53.87 0 0 0 17.8-3.31s-.16-6.23-.16-8.68M345.07 97.06h37.24A134.82 134.82 0 0 0 385 83.57l-2-.33c-1.63 6.67-2.44 11.55-15.39 11.55a46.77 46.77 0 0 1-8.84-1.06V70.32h7.22c6.32 0 7.79.08 8.27 3.41l.41 2.76h2.14V61.87h-2.14l-.41 2.76c-.53 3.37-1.99 3.37-8.31 3.37h-7.22V45.69h6.73c11.48 0 11.64 1.22 13.43 9.92l1.95-.33c0-.73-.41-10.08-.73-11.87h-35v1.75l2.93.24c3.17.33 3.17.73 3.17 10.67V84.4c0 9.94 0 10.35-3.17 10.68l-2.93.24zM405 46.74a26 26 0 0 1 5-.65c6.34 0 12.59 2.93 12.59 12.44 0 9.18-6.17 12.84-13 12.84H405zm-13.64 50.32H411v-1.75l-2.93-.24C405 94.74 405 94.34 405 84.4V73.65h3c1.71 0 3.73 0 5 1.06 1.05.9 2.92 4 5 8l3.35 6.29c2.44 4.48 6.18 8.1 11.54 8.1h6.26v-1.79a8.47 8.47 0 0 1-4.07-.81c-2-1.14-5.61-5.95-9-12.06-2.2-3.91-4.88-9.12-6.1-11.4 4.47-2.11 11.22-6.59 11.22-14.17 0-12.36-10.89-13.47-18.61-13.47h-21.23v1.75l2.93.24c3.17.33 3.17.73 3.17 10.67V84.4c0 9.93 0 10.34-3.17 10.67l-2.93.24zM456.87 63.73c-4.39-2.6-7.88-5.2-7.88-10a8.62 8.62 0 0 1 8.86-8.86c9.18 0 10.48 7.07 11.29 11.13h2c-.19-2.36-.39-8.33-.82-11.22a22.72 22.72 0 0 0-11.22-2.6c-8.62 0-16.91 4.15-16.91 14.06 0 6.1 4.31 11.14 8.94 13.66l5.2 2.85c6.34 2.84 11.3 6.91 11.3 12.84 0 6.34-4.15 10-9.76 10-11.14 0-14.14-9.67-15-15.53l-2.6.65c.92 5.57 1.83 11.23 2.6 14.31 2.52 1.54 6.42 3.25 12.76 3.25 8.61 0 18.77-4.23 18.77-15.2 0-9.76-6.66-13.17-13.09-16.83z" transform="translate(0 -13.26)"/><path class="d6abca85-f835-4f84-bc41-2a8c71659a2c" d="M141.66 66.11c2.49.13 5.16-.07 7.65-.07 9.62 0 15.51-5.17 15.51-14.78 0-10.47-6-16.88-16.63-16.88a33.42 33.42 0 0 0-6.51.85zm20.76 0c.93 5.15 8.1 18.38 10.86 23.3 6.23 11.48 22.17 34.71 34.11 34h1.38v1.88l-2.1.07c-16.87.66-31.94-18.14-40.71-33.21-3.57-6.13-7-13.24-10.11-19.63a7.38 7.38 0 0 0-2.85-3.4c-1.66-.88-3.83-.87-5.63-.87h-5.74V81.8c0 2.49-.19 8.66.49 11.09.54 1.91 1.69 2.16 3.61 2.36l3.3.27v1.53H126v-1.53l3.31-.27c2-.2 3.15-.44 3.69-2.36.69-2.4.5-8.61.5-11.09V47c0-2.47.19-8.68-.5-11.08-.55-1.92-1.73-2.16-3.69-2.36l-3.31-.32v-1.53h15.71c13.83 0 32.5-2 32.5 17.48 0 7.87-5.35 13-11.89 16.2a6.33 6.33 0 0 0 .1.7" transform="translate(0 -13.26)"/><path class="186c350d-7bfa-48fa-81b6-296421d416b7" d="M243.42 148.86l-.15.31a10 10 0 0 1-5.69 1.66c-6.31 0-10-4.83-10-11.38s3.82-11.7 10.1-11.7a10.45 10.45 0 0 1 5.46 1.38l.15.25a7.87 7.87 0 0 0-.23 1.66l-.2.16a8.26 8.26 0 0 0-5.17-1.72c-3.65 0-6.07 2-7.39 5.61a12.1 12.1 0 0 0-.73 4.2c0 5.27 3 9.75 8.2 9.75a7.93 7.93 0 0 0 5.55-2.19l.23.16a13.28 13.28 0 0 0-.13 1.85zM257.31 150.36c-.53 0-1.05 0-1.58.09l-.17-.19v-1.13a6.68 6.68 0 0 1-4.23 1.6 4.78 4.78 0 0 1-4.87-5.11c0-5.33 5.46-5.55 9.11-6.11v-.63c0-2.54-1-3.29-3.3-3.29a7.57 7.57 0 0 0-4 1.19l-.23-.13c.06-.5.06-1 .09-1.47l.15-.22a9.83 9.83 0 0 1 4.41-1c1.78 0 3.65.56 4.38 2.51a6.56 6.56 0 0 1 .26 2.26v7.36a37.4 37.4 0 0 0 .2 4zm-1.78-9.28c-2.63.44-7.24.63-7.24 4.55a3.3 3.3 0 0 0 3.41 3.37 5.22 5.22 0 0 0 3.82-1.66zM283.7 150.36a15.33 15.33 0 0 0-1.69.06l-.18-.19c.06-1.79.09-3.54.09-5.33v-2.16-2.1a13.91 13.91 0 0 0-.12-2.2 2.93 2.93 0 0 0-3.12-2.76 7.15 7.15 0 0 0-4.61 2.1c.15 1.25.15 2.54.2 3.83.12 2.85.09 5.71.17 8.56l-.15.19c-.55 0-1.14 0-1.69.06l-.15-.22c0-1.22.06-2.48.06-3.7 0-1.69 0-3.36-.06-5-.06-2.54 0-5.74-3.21-5.74a7.14 7.14 0 0 0-4.47 2.07c0 2.6 0 5.24.09 7.84 0 1.51 0 3 .17 4.55l-.17.19c-.55 0-1.14 0-1.69.06l-.17-.19c.06-1.29.06-2.57.06-3.86 0-2.35-.06-4.67-.12-7-.06-1.57-.06-3.17-.23-4.74l.18-.19a17.45 17.45 0 0 0 1.78-.31l.15.19c0 .6 0 1.22-.06 1.82 1.61-1.22 3.09-2.23 5.14-2.23a4 4 0 0 1 3.74 2.45 8.39 8.39 0 0 1 5.6-2.41 4.32 4.32 0 0 1 3.07 1.13c1.49 1.47 1.43 3.73 1.43 5.71v2.6c0 2.26.09 4.55.18 6.8zM301.06 150.36c-.53 0-1.05 0-1.58.06l-.15-.19v-1.44a6.1 6.1 0 0 1-4.41 1.79c-4.17 0-6.54-3.79-6.54-8a9.66 9.66 0 0 1 1.05-4.52c1.81-3.29 5-4 8.29-4 .47 0 1 .06 1.43.06-.12-2.76 0-5.49-.26-8.22l.18-.19c.61-.09 1.2-.22 1.81-.34l.17.19c0 2.48-.06 5-.06 7.46v4.67c0 4.14.06 8.28.23 12.42zm-1.81-9.53c0-1.66-.06-3.32-.06-5a15.32 15.32 0 0 0-1.69-.06c-4.29 0-7.21 1.72-7.21 6.74 0 3.35 1.63 6.33 5 6.33a5.26 5.26 0 0 0 4-1.91c-.04-2.02-.01-4.06-.04-6.1zM318.58 142.12h-11c0 3.79 2 6.87 5.72 6.87a6.86 6.86 0 0 0 4.79-2l.23.13c-.06.6-.12 1.19-.12 1.79l-.15.31a9 9 0 0 1-5 1.57c-4.7 0-7.36-3.57-7.36-8.43 0-4.64 2.31-8.37 6.92-8.37s6.16 3.61 6.16 8zm-6.07-6.65c-2.92 0-4.5 2.1-4.87 5h9.2c-.01-2.81-1.53-5-4.33-5zM334.92 150.36c-.58 0-1.17.06-1.75.06l-.15-.19v-4c0-2-.06-4-.06-6 0-2.42-.44-4.55-3.15-4.55a7.32 7.32 0 0 0-4.76 2.07v.69c0 3.92 0 7.84.26 11.73l-.2.19a15.34 15.34 0 0 0-1.69.09l-.15-.22c.06-1.22 0-2.48 0-3.73V144c0-3.1-.06-6.27-.32-9.38l.18-.22a16.93 16.93 0 0 0 1.75-.31l.17.19c-.06.56-.09 1.1-.12 1.66a8.85 8.85 0 0 1 5.37-2 4.12 4.12 0 0 1 4.06 2.57 11.7 11.7 0 0 1 .44 4l.06 3.2c0 2.13.09 4.3.17 6.43zM365.54 148.86l-.15.31a10 10 0 0 1-5.69 1.66c-6.3 0-10-4.83-10-11.38s3.82-11.7 10.1-11.7a10.45 10.45 0 0 1 5.46 1.38l.15.25a7.88 7.88 0 0 0-.23 1.66l-.2.16a8.26 8.26 0 0 0-5.17-1.72c-3.65 0-6.07 2-7.38 5.61a12.1 12.1 0 0 0-.73 4.2c0 5.27 3 9.75 8.2 9.75a7.93 7.93 0 0 0 5.55-2.19l.23.16a13.28 13.28 0 0 0-.14 1.85zM375.43 150.74c-4.76 0-6.71-3.79-6.71-8.47s2.16-8.34 6.95-8.34 6.54 3.86 6.54 8.37c0 4.7-2.02 8.44-6.78 8.44zm.12-15.18c-3.74 0-4.87 3.17-4.87 6.65s1.05 6.87 4.9 6.87c3.56 0 4.67-3.23 4.67-6.52s-.99-7-4.7-7zM388.8 150.36h-1.69l-.17-.19v-14.71c0-3.17-.09-6.37-.32-9.53l.2-.19a11.45 11.45 0 0 0 1.81-.31l.17.19c-.12 3.48-.06 7-.06 10.47 0 2.85 0 5.74.06 8.62 0 1.82 0 3.61.15 5.42zM396.33 150.36h-1.69l-.17-.19v-14.71c0-3.17-.09-6.37-.32-9.53l.2-.19a11.46 11.46 0 0 0 1.81-.31l.17.19c-.12 3.48-.06 7-.06 10.47 0 2.85 0 5.74.06 8.62 0 1.82 0 3.61.15 5.42zM413.93 142.12h-11c0 3.79 2 6.87 5.72 6.87a6.86 6.86 0 0 0 4.79-2l.23.13c-.06.6-.12 1.19-.12 1.79l-.15.31a9 9 0 0 1-5 1.57c-4.7 0-7.36-3.57-7.36-8.43 0-4.64 2.31-8.37 6.92-8.37s6.16 3.61 6.16 8zm-6.07-6.65c-2.92 0-4.5 2.1-4.87 5h9.2c-.01-2.81-1.52-5-4.33-5zM430.34 135.75l-.23.19c-1-.13-2-.13-2.92-.16a5.13 5.13 0 0 1 2 4.17 5.27 5.27 0 0 1-5.46 5.39 4.94 4.94 0 0 1-1.52-.19c-.32.56-.64 1.13-.93 1.69l2.63.85c2.66.85 6.13 1.5 6.13 5.27s-3.33 5.3-6.31 5.3c-2.8 0-6.16-1.54-6.16-5 0-2.2 1.26-3.57 2.8-4.8l-1.28-.56-.09-.31a27.08 27.08 0 0 0 1.63-2.85c-.38-.31-.79-.56-1.14-.88a5.15 5.15 0 0 1-1.58-3.89 5.35 5.35 0 0 1 4.29-5.55 11.23 11.23 0 0 1 2.28-.22c1.17 0 2.37.06 3.53.06h1.55a6.66 6.66 0 0 1 .79 0l.12.22a9.47 9.47 0 0 0-.13 1.27zm-5.6 14.14c-1-.34-2-.69-3.06-1a5.43 5.43 0 0 0-2.31 4c0 2.7 2.19 3.86 4.44 3.86 2 0 4.29-1.1 4.29-3.57-.01-2.18-1.76-2.76-3.37-3.29zm-1.11-14.11a3.85 3.85 0 0 0-3.94 4.17 3.71 3.71 0 0 0 3.88 3.92c2.25 0 3.77-1.76 3.77-4.14a3.69 3.69 0 0 0-3.71-3.95zM446 142.12h-11c0 3.79 2 6.87 5.72 6.87a6.86 6.86 0 0 0 4.79-2l.23.13c-.06.6-.12 1.19-.12 1.79l-.15.31a9 9 0 0 1-5 1.57c-4.7 0-7.36-3.57-7.36-8.43 0-4.64 2.31-8.37 6.92-8.37s6.16 3.61 6.16 8zm-6-6.65c-2.92 0-4.5 2.1-4.87 5h9.2c-.04-2.81-1.56-5-4.33-5zM466.53 150.74c-4.76 0-6.71-3.79-6.71-8.47s2.16-8.34 6.95-8.34 6.54 3.86 6.54 8.37c-.01 4.7-2.02 8.44-6.78 8.44zm.12-15.18c-3.74 0-4.87 3.17-4.87 6.65s1.05 6.87 4.9 6.87c3.56 0 4.67-3.23 4.67-6.52s-.99-7-4.7-7zM484.13 127.66l-.23.22a3.09 3.09 0 0 0-1.05-.19c-2.19 0-2.39 1.5-2.39 3.45v3.2c1.05 0 2.1-.06 3.15-.06l.2.25a8.28 8.28 0 0 0-.09 1.19l-.21.25c-.73 0-1.43-.06-2.16-.06h-.91v3.39q0 3.62.09 7.24c0 1.22.09 2.41.09 3.64l-.15.19c-.55 0-1.11 0-1.66.06l-.2-.19v-3-11.35h-2.51l-.2-.19c0-.44.06-.88.06-1.32l.2-.22a21 21 0 0 0 2.42.09c0-1.13-.06-2.29-.06-3.42 0-3.23 1.31-4.8 4.38-4.8a6.71 6.71 0 0 1 1.11.13l.15.25a8.11 8.11 0 0 0-.03 1.25zM242.6 184c-.67 0-1.31 0-2 .06l-.18-.19c-.2-.75-.38-1.47-.55-2.23-.41-1.66-.9-3.32-1.4-5h-8.07c-.73 2.38-1.43 4.74-2 7.18l-.23.16h-1.72l-.15-.25c.79-2.35 1.55-4.74 2.28-7.12 1.52-4.86 3.07-9.72 4.5-14.61l.17-.16c.82 0 1.66 0 2.48-.09l.2.16c1.23 4.08 2.48 8.12 3.74 12.17 1 3.23 2 6.46 3 9.66zm-8.23-21l-3.5 12h7.07zM252.64 169.9l-.23.19a2.21 2.21 0 0 0-1.23-.41c-2.83 0-2.95 4-2.95 6.21 0 2.67 0 5.33.15 8l-.15.19h-1.75l-.17-.19v-.78c0-1.19.06-2.41.06-3.61v-3.57c0-2.54-.09-5.08-.26-7.59l.17-.19a16.75 16.75 0 0 0 1.72-.28l.2.19c-.06.82-.06 1.66-.06 2.48.55-1.6 1.61-2.85 3.3-2.85a2.5 2.5 0 0 1 1.25.31l.18.22a15.06 15.06 0 0 0-.23 1.68zM262 169.49l-.17.16c-1.08 0-2.19 0-3.27-.06v10.1c0 1.32.12 2.88 1.69 2.88a3.68 3.68 0 0 0 1.52-.31l.23.13c-.09.47-.06 1-.12 1.44l-.2.25a6.39 6.39 0 0 1-1.55.22c-3.18 0-3.42-2.1-3.42-5 0-2.23.06-4.45.06-6.65v-3.1c-.79 0-1.61 0-2.39.06l-.15-.22c0-.44.06-.85.06-1.29l.17-.19c.76 0 1.55.06 2.31.06v-.19c0-1.22-.06-2.45-.12-3.67l.17-.19a15.53 15.53 0 0 0 1.72-.44l.17.22c-.12 1.41-.15 2.85-.15 4.26 1.11 0 2.25 0 3.36-.06l.15.19a10.43 10.43 0 0 0-.07 1.4zM269 184.45a8 8 0 0 1-4.35-1.22l-.15-.25c.09-.6.15-1.22.18-1.82l.23-.09a5.6 5.6 0 0 0 4.2 1.79c1.84 0 3.74-.85 3.74-3.14 0-4.52-8.26-1.29-8.26-7.59 0-3.1 2.71-4.48 5.25-4.48a9.51 9.51 0 0 1 4 .94l.12.22c-.09.6-.15 1.22-.2 1.82l-.15.06a5.83 5.83 0 0 0-3.85-1.35c-1.55 0-3.36.75-3.36 2.7 0 4.14 8.26 1.6 8.26 7.59.07 3.44-2.79 4.82-5.66 4.82zM299 184.07c-.53 0-1.05 0-1.58.09l-.17-.19v-1.13a6.68 6.68 0 0 1-4.23 1.6 4.78 4.78 0 0 1-4.87-5.11c0-5.33 5.46-5.55 9.11-6.11v-.63c0-2.54-1-3.29-3.3-3.29a7.57 7.57 0 0 0-4 1.19l-.23-.13c.06-.5.06-1 .09-1.47l.15-.22a9.83 9.83 0 0 1 4.41-1c1.78 0 3.65.56 4.38 2.51a6.56 6.56 0 0 1 .26 2.26v7.37a37.4 37.4 0 0 0 .2 4zm-1.78-9.28c-2.63.44-7.24.63-7.24 4.55a3.3 3.3 0 0 0 3.42 3.42 5.22 5.22 0 0 0 3.82-1.66zM316.33 184.07c-.58 0-1.17.06-1.75.06l-.15-.19v-4c0-2-.06-4-.06-6 0-2.41-.44-4.55-3.15-4.55a7.32 7.32 0 0 0-4.76 2.07v.69c0 3.92 0 7.84.26 11.73l-.2.19a15.36 15.36 0 0 0-1.69.09l-.15-.22c.06-1.22 0-2.48 0-3.73v-2.48c0-3.1-.06-6.27-.32-9.38l.18-.22a17 17 0 0 0 1.75-.31l.17.19c-.06.56-.09 1.1-.12 1.66a8.84 8.84 0 0 1 5.37-2 4.12 4.12 0 0 1 4.06 2.57 11.7 11.7 0 0 1 .44 4l.06 3.2c0 2.13.09 4.3.17 6.43zM333.7 184.07c-.53 0-1.05 0-1.58.06l-.15-.19v-1.44a6.1 6.1 0 0 1-4.41 1.79c-4.17 0-6.54-3.79-6.54-8a9.66 9.66 0 0 1 1.05-4.52c1.81-3.29 5-4 8.29-4 .47 0 1 .06 1.43.06-.12-2.76 0-5.49-.26-8.22l.18-.19c.61-.09 1.2-.22 1.81-.34l.17.19c0 2.48-.06 5-.06 7.46v4.67c0 4.14.06 8.28.23 12.42zm-1.81-9.53c0-1.66-.06-3.32-.06-5a15.32 15.32 0 0 0-1.69-.06c-4.29 0-7.21 1.72-7.21 6.74 0 3.35 1.63 6.33 5 6.33a5.26 5.26 0 0 0 4-1.91c-.04-2.03-.01-4.06-.04-6.1zM360.49 180.62c-1.08 2.79-3.65 3.92-6.3 3.92a9.25 9.25 0 0 1-5.31-1.6l-.12-.34.12-1.91.29-.06a6.57 6.57 0 0 0 4.93 2.23c2.57 0 5-1.57 5-4.58 0-5.86-10.42-4-10.42-11.07 0-4 3.15-5.74 6.51-5.74a9.42 9.42 0 0 1 4.93 1.22l.17.28-.17 1.54-.26.16a7.79 7.79 0 0 0-4.7-1.54c-2.33 0-4.61 1.16-4.61 4 0 5.49 10.45 3.39 10.45 11.19a6.31 6.31 0 0 1-.51 2.3zM376.22 182.91l-.26.38a7.41 7.41 0 0 1-4.12 1.16 7.07 7.07 0 0 1-2.54-.5c-3.06-1.22-4.35-4.23-4.35-7.59 0-4.89 2.45-8.72 7.3-8.72a6.67 6.67 0 0 1 3.75 1.06l.15.25c-.09.6-.17 1.19-.2 1.79l-.26.13a4.61 4.61 0 0 0-3.5-1.5c-3.59 0-5.34 3.2-5.34 6.74s1.69 6.62 5.25 6.62a5.38 5.38 0 0 0 4-1.82l.29.13c-.11.62-.11 1.24-.17 1.87zM382.09 162.46l-.2.25c-.61.06-1.26.09-1.87.19l-.23-.25c.06-.66 0-1.29 0-1.94l.23-.25c.61-.06 1.26-.09 1.87-.19l.21.25c.02.66-.01 1.29-.01 1.94zm-.06 21.6h-1.75l-.15-.19v-3.76c0-3.92 0-7.87-.26-11.79l.17-.19a11.47 11.47 0 0 0 1.75-.31l.17.19c-.09 1.19-.09 2.42-.09 3.61 0 4.08.15 8.15.29 12.23zM399.6 175.82h-11c0 3.79 2 6.87 5.72 6.87a6.86 6.86 0 0 0 4.79-2l.23.13c-.06.6-.12 1.19-.12 1.79l-.15.31a9 9 0 0 1-5 1.57c-4.7 0-7.36-3.57-7.36-8.43 0-4.64 2.31-8.37 6.92-8.37s6.16 3.61 6.16 8zm-6.07-6.65c-2.92 0-4.5 2.1-4.87 5h9.2c-.01-2.8-1.52-5-4.33-5zM415.95 184.07c-.58 0-1.17.06-1.75.06l-.15-.19v-4c0-2-.06-4-.06-6 0-2.41-.44-4.55-3.15-4.55a7.32 7.32 0 0 0-4.76 2.07v.69c0 3.92 0 7.84.26 11.73l-.2.19a15.34 15.34 0 0 0-1.69.09l-.15-.22c.06-1.22 0-2.48 0-3.73v-2.48c0-3.1-.06-6.27-.32-9.38l.18-.22a17 17 0 0 0 1.75-.31l.17.19c-.06.56-.09 1.1-.12 1.66a8.84 8.84 0 0 1 5.37-2 4.12 4.12 0 0 1 4.06 2.57 11.7 11.7 0 0 1 .44 4l.06 3.2c0 2.13.09 4.3.17 6.43zM431.92 182.91l-.26.38a7.41 7.41 0 0 1-4.12 1.16 7.07 7.07 0 0 1-2.54-.5c-3.06-1.22-4.35-4.23-4.35-7.59 0-4.89 2.45-8.72 7.3-8.72a6.67 6.67 0 0 1 3.74 1.07l.15.25c-.09.6-.18 1.19-.2 1.79l-.26.13a4.61 4.61 0 0 0-3.5-1.5c-3.59 0-5.34 3.2-5.34 6.74s1.69 6.62 5.25 6.62a5.38 5.38 0 0 0 4-1.82l.29.13c-.08.61-.08 1.23-.16 1.86zM447.76 175.82h-11c0 3.79 2 6.87 5.72 6.87a6.86 6.86 0 0 0 4.79-2l.23.13c-.06.6-.12 1.19-.12 1.79l-.15.31a9 9 0 0 1-5 1.57c-4.7 0-7.36-3.57-7.36-8.43 0-4.64 2.31-8.37 6.92-8.37s6.16 3.61 6.16 8zm-6.07-6.65c-2.92 0-4.5 2.1-4.87 5H446c0-2.8-1.5-5-4.31-5zM455.88 184.45a8 8 0 0 1-4.35-1.22l-.15-.25c.09-.6.15-1.22.18-1.82l.23-.09a5.6 5.6 0 0 0 4.2 1.79c1.84 0 3.74-.85 3.74-3.14 0-4.52-8.26-1.29-8.26-7.59 0-3.1 2.71-4.48 5.25-4.48a9.51 9.51 0 0 1 4 .94l.12.22c-.09.6-.15 1.22-.2 1.82l-.15.06a5.83 5.83 0 0 0-3.85-1.35c-1.55 0-3.36.75-3.36 2.7 0 4.14 8.26 1.6 8.26 7.59.03 3.44-2.83 4.82-5.66 4.82z" transform="translate(0 -13.26)"/></svg>
