<svg id="330b916d-68d9-4d82-9034-67de7c2c835f" data-name="Layer 1" xmlns="http://www.w3.org/2000/svg" viewBox="0 0 2626.2 1055.49" width="2626.2" height="1055.49"><defs><style>.\38 39b2c00-f8d6-44b3-8f6f-734e33160139{fill:#e13627}</style></defs><title>aprojectof</title><path class="839b2c00-f8d6-44b3-8f6f-734e33160139" d="M395.6 666h-93.5v215H129.4V272h282q127.5 0 199.3 48.1T682.6 456q0 63.6-30.3 105.4t-94.7 67.8l149.6 245.5v6.3H522.1zm-93.5-113h109.3q49.2 0 74.1-22t24.9-61.5q0-39.5-25.1-62T411.4 385H302.1z" transform="translate(-129.4 -27.82)"/><path d="M1359 653.8l82.2-381.8h171.3l-152.1 609h-179.2l-96-347.2-94 347.2H912.6L760 272h171.8l82.2 381.8 98.4-381.8h146.7zM1661.8 881V272h230.8q95 0 170.8 36.6t118.4 103.3q42.6 66.7 43.1 149.5v28q0 83.7-41.6 150t-117.2 103.7q-75.6 37.4-168.6 37.8zm172.8-496v383h60q74.3 0 114.2-45t39.9-133.7v-26.5q0-88.3-39.9-133.1T1892.6 385zM2454.9 768h300.7v113h-473.4V272H2455zM167.9 1042.6l4.3 22.2 5.2-21.2 29.9-105.4h10.5l29.6 105.4 5.1 21.4 4.5-22.4 25-104.4h11.9l-35.3 143h-11.2l-31.3-111.8-3.5-14.1-3.4 14.1-32 111.9H166l-35.2-143h11.9zM364.4 1021.6h-40v59.6h-11.8v-143h44.8q22.1 0 34.5 11.1t12.4 31a39.7 39.7 0 0 1-28.6 38.8l34.5 60.9v1.3h-12.4zm-40.1-10.2H360q14.7 0 23.6-8.7t8.9-22.4q0-15.1-9.3-23.5t-26.1-8.4h-32.7zM443.4 1081.2h-11.7v-143h11.7zM569.4 948.4h-47.2v132.8h-11.7V948.4h-47.2v-10.2h106.1zM601 1081.2h-11.7v-143H601zM734.5 1081.2h-11.7l-79.3-122.4v122.4h-11.7v-143h11.7l79.4 122.5V938.2h11.6zM863.4 1064.3q-6.1 8.9-19 14a79.6 79.6 0 0 1-28.9 5 52.3 52.3 0 0 1-28.8-8.1 53 53 0 0 1-19.5-22.8q-6.9-14.7-7-33.8v-18.1q0-29.8 14.5-47t38.9-17.2q21.3 0 34.3 11.2t15.4 31h-11.6q-2.6-15.8-12.4-23.9t-25.6-8.1q-19.3 0-30.6 14.3t-11.3 40.2v16.9q0 16.3 5.4 28.9t15.3 19.4a39.5 39.5 0 0 0 23 6.9q15.1 0 25.9-4.9 7-3.2 10.4-7.6v-37h-37v-10.2h48.7zM1018.1 1041.1h-62.6l-14.2 40.2h-12.2l52.2-143h11.1l52.2 143h-12.1zm-59-10.2h55.3L986.7 953zM1165.1 1081.2h-11.7l-79.3-122.4v122.4h-11.7v-143h11.7l79.4 122.5V938.2h11.6zM1194.9 1081.2v-143h38.6a58.3 58.3 0 0 1 30.4 8 54.6 54.6 0 0 1 21 22.9q7.5 14.9 7.5 34v13.2q0 19.2-7.5 34a54.4 54.4 0 0 1-21.1 22.9q-13.6 8.1-31.2 8.1zm11.7-132.8V1071h26.1q21.8 0 35-15t13.2-40.6v-12.5q0-24.7-13-39.5t-34.2-14.9zM1369.1 1081.2v-143h38.6a58.3 58.3 0 0 1 30.4 8 54.6 54.6 0 0 1 21 22.9q7.5 14.9 7.5 34v13.2q0 19.2-7.5 34a54.4 54.4 0 0 1-21.1 22.9q-13.6 8.1-31.2 8.1zm11.7-132.8V1071h26.1q21.8 0 35-15t13.2-40.6v-12.5q0-24.7-13-39.5t-34.2-14.9zM1566.9 1012.7h-64.5v58.3h74.2v10.2h-85.8v-143h85.4v10.2h-73.7v54h64.5zM1674.1 1046.1q0-11.9-8.1-18.8t-29.5-13.2q-21.4-6.2-31.3-13.6-14-10.4-14-27.3t13-26.7q13-10.3 33.3-10.3a53.6 53.6 0 0 1 24.6 5.5 40.8 40.8 0 0 1 16.8 15.3 41.4 41.4 0 0 1 6 21.9h-11.7q0-14.7-9.7-23.6t-26-8.9q-15.8 0-25.2 7.3a23.2 23.2 0 0 0-9.4 19.1 21.9 21.9 0 0 0 8.4 17.8q8.4 6.9 27 12.2t28.1 10.9q9.6 5.6 14.4 13.5a34.7 34.7 0 0 1 4.8 18.6q0 16.9-13 27.1t-34.3 10.2a65.2 65.2 0 0 1-26.8-5.4q-12.2-5.4-18.5-15.1a40.1 40.1 0 0 1-6.3-22.3h11.7q0 15.1 10.9 23.9t29 8.7q16.1 0 25.9-7.4a23.3 23.3 0 0 0 9.9-19.4zM1720.6 1081.2H1709v-143h11.7zM1850.8 1064.3q-6.1 8.9-19 14a79.6 79.6 0 0 1-28.9 5 52.3 52.3 0 0 1-28.8-8.1 53 53 0 0 1-19.5-22.8q-6.9-14.7-7-33.8v-18.1q0-29.8 14.5-47t38.9-17.2q21.3 0 34.3 11.2t15.4 31H1839q-2.6-15.8-12.4-23.9t-25.6-8.1q-19.3 0-30.6 14.3t-11.3 40.2v16.9q0 16.3 5.4 28.9t15.3 19.4a39.5 39.5 0 0 0 23 6.9q15.1 0 25.9-4.9 7-3.2 10.4-7.6v-37h-37v-10.2h48.7zM1980.9 1081.2h-11.7l-79.3-122.4v122.4h-11.7v-143h11.7l79.4 122.5V938.2h11.6zM2074.8 1071h68.1v10.2H2063v-143h11.7zM2244.3 1041.1h-62.6l-14.2 40.2h-12.2l52.2-143h11.1l52.2 143h-12.1zm-59-10.2h55.3l-27.7-77.9zM2288.5 1081.2v-143h40.7q22.2 0 33.6 9.5t11.5 28a32.5 32.5 0 0 1-5.8 19.3 31.9 31.9 0 0 1-16 11.7 33 33 0 0 1 19.5 12.3 35 35 0 0 1 7.3 22q0 18.9-11.8 29.6t-32.8 10.7zm11.7-78.9h31.8q14.6-.3 22.6-7.1t8-19.9q0-13.8-8.3-20.3t-25.1-6.5h-29.1zm0 10.2v58.5h35q15 0 23.7-7.9t8.8-21.9q0-13.2-8.4-20.9t-23.2-7.7zM191.71 34h15.73l60 147H247.6l-17.39-43.06h-61.69L151.34 181h-19.87zm34.36 89.42l-26.5-67.9-27.32 67.9zM388.35 183.07a42.66 42.66 0 0 1-23.7-6.62 50.25 50.25 0 0 1-16.25-16.77v65.41h-18.21V72.95h16.15v20.28a50.07 50.07 0 0 1 16.66-16 43.46 43.46 0 0 1 22.67-6.11 46 46 0 0 1 20.49 4.55A51.34 51.34 0 0 1 422.3 88a57.71 57.71 0 0 1 10.7 17.86 59.32 59.32 0 0 1 3.79 21.14 66.8 66.8 0 0 1-3.52 21.84 54.6 54.6 0 0 1-9.94 17.8 48.11 48.11 0 0 1-15.32 12 43.37 43.37 0 0 1-19.66 4.43zm-5.59-15.73a31 31 0 0 0 14.59-3.42 35.67 35.67 0 0 0 11.18-9.11 41.44 41.44 0 0 0 7.14-12.94 45.63 45.63 0 0 0 2.48-14.9 42.46 42.46 0 0 0-10.75-28.25A37.36 37.36 0 0 0 395.7 90a33.49 33.49 0 0 0-14.59-3.21 29.29 29.29 0 0 0-10.25 2 45.49 45.49 0 0 0-9.93 5.21 35.55 35.55 0 0 0-8.07 7.66 23.14 23.14 0 0 0-4.46 9.34v30.84a46.71 46.71 0 0 0 5.8 10 40.61 40.61 0 0 0 8.07 8.07 39.5 39.5 0 0 0 9.73 5.38 30 30 0 0 0 10.77 2.05zM516.28 88.88a46.85 46.85 0 0 0-24.12 7 35.9 35.9 0 0 0-14.8 18.42V181h-18.21V72.95h17V98a51 51 0 0 1 14.7-18.11 36.53 36.53 0 0 1 19.46-7.76h3.52a13 13 0 0 1 2.48.21zM579 183.07a53 53 0 0 1-39.43-16.77 54.89 54.89 0 0 1-11.07-17.8 58.43 58.43 0 0 1-3.93-21.32 57.7 57.7 0 0 1 4-21.53 56.45 56.45 0 0 1 11.18-17.8A53.32 53.32 0 0 1 557 75.64a52.76 52.76 0 0 1 22-4.55 53.46 53.46 0 0 1 39.43 16.77 56.45 56.45 0 0 1 11.18 17.8 57.7 57.7 0 0 1 4 21.53 58.49 58.49 0 0 1-3.93 21.32 53.75 53.75 0 0 1-28.46 30 53.3 53.3 0 0 1-22.22 4.56zm-35.81-55.68a43.34 43.34 0 0 0 2.81 15.73 40.13 40.13 0 0 0 7.66 12.63 36.11 36.11 0 0 0 11.34 8.48 33 33 0 0 0 27.95 0 36.61 36.61 0 0 0 11.49-8.59 40.15 40.15 0 0 0 7.76-12.83A44.17 44.17 0 0 0 615 127a43.61 43.61 0 0 0-2.79-15.63 40.21 40.21 0 0 0-7.76-12.83A36.67 36.67 0 0 0 593 89.92a32.09 32.09 0 0 0-14-3.1A31.24 31.24 0 0 0 565 90a36.85 36.85 0 0 0-11.38 8.69 41.22 41.22 0 0 0-7.62 12.86 44.2 44.2 0 0 0-2.81 15.84zM641.93 219.5a43.34 43.34 0 0 1-13.56-2.07 30.72 30.72 0 0 1-11.28-6.62l8.49-12.21a15.86 15.86 0 0 0 6.73 3.73 28.93 28.93 0 0 0 7.56 1 16 16 0 0 0 6.42-1.35 20 20 0 0 0 5.59-3.62 16.43 16.43 0 0 0 3.93-5.59 17.4 17.4 0 0 0 1.45-7V72.95h18.22v111.57a34.88 34.88 0 0 1-2.79 14.08 35.57 35.57 0 0 1-7.45 11.07 34 34 0 0 1-10.66 7.25 31.6 31.6 0 0 1-12.65 2.58zm15.31-166.84V29.89h18.22v22.77zM752.67 183.07a55 55 0 0 1-22.36-4.45 52.81 52.81 0 0 1-17.39-12.11 55.15 55.15 0 0 1-11.28-17.91 58.48 58.48 0 0 1-4-21.63 57.7 57.7 0 0 1 4-21.53A54.62 54.62 0 0 1 713 87.64a54.06 54.06 0 0 1 17.49-12.11 55 55 0 0 1 22.36-4.45 52.54 52.54 0 0 1 50.2 34.26 57.94 57.94 0 0 1 3.83 20.8q0 2.28-.1 4.14a22.6 22.6 0 0 1-.31 2.9h-89.61a41.89 41.89 0 0 0 3.73 14.7 37.77 37.77 0 0 0 8.07 11.39 37.22 37.22 0 0 0 11.28 7.45 33.66 33.66 0 0 0 13.35 2.69 35.54 35.54 0 0 0 9.73-1.35 42.13 42.13 0 0 0 8.9-3.62 30.9 30.9 0 0 0 7.35-5.59 22.81 22.81 0 0 0 4.86-7.45l15.73 4.35a39.72 39.72 0 0 1-7.35 11 48.73 48.73 0 0 1-10.76 8.59A55.5 55.5 0 0 1 768.2 181a57.82 57.82 0 0 1-15.53 2.07zm37.05-63.34a39 39 0 0 0-3.83-14.18 38 38 0 0 0-8.07-11.07 37 37 0 0 0-38.61-7.14 35.15 35.15 0 0 0-11.28 7.25 36.63 36.63 0 0 0-7.87 11.07 40.69 40.69 0 0 0-3.62 14.08zM819.94 126.77a59 59 0 0 1 3.93-21.53 52.89 52.89 0 0 1 11.18-17.7 54 54 0 0 1 17.28-12 54.84 54.84 0 0 1 22.46-4.45q16.15 0 27.84 7.14a46.41 46.41 0 0 1 17.7 19.15L902.54 103a29.65 29.65 0 0 0-11.59-11.9 32.9 32.9 0 0 0-16.56-4.24 33.85 33.85 0 0 0-25.47 11.34 41.24 41.24 0 0 0-7.56 12.63 46.05 46.05 0 0 0 .1 31.88 42.44 42.44 0 0 0 7.76 12.94 35.41 35.41 0 0 0 11.38 8.59 32.08 32.08 0 0 0 14 3.1A33.71 33.71 0 0 0 884 166a36.07 36.07 0 0 0 8.49-3.62 32.06 32.06 0 0 0 6.73-5.28 18 18 0 0 0 4.14-6.52l17.8 5.38a38.29 38.29 0 0 1-6.93 11 43.4 43.4 0 0 1-10.45 8.49 57.26 57.26 0 0 1-28.78 7.62 53.94 53.94 0 0 1-39.74-16.77A55.16 55.16 0 0 1 824 148.4a58.48 58.48 0 0 1-4.06-21.63zM997.75 175.62q-1.66.83-4.35 2t-6.11 2.28a53.58 53.58 0 0 1-7.45 1.86 47.48 47.48 0 0 1-8.38.72 27.64 27.64 0 0 1-17.18-5.48q-7.28-5.52-7.28-17.11V87.23h-14.7V72.95H947v-36h18.22v36h24.22v14.28h-24.19v67.07q.41 6 3.93 8.69a13.23 13.23 0 0 0 8.28 2.69 26.51 26.51 0 0 0 9.83-1.76 42.47 42.47 0 0 0 6.11-2.79zM1114.29 183.07a53 53 0 0 1-39.43-16.77 54.89 54.89 0 0 1-11.07-17.8 58.43 58.43 0 0 1-3.93-21.32 57.7 57.7 0 0 1 4-21.53 56.45 56.45 0 0 1 11.18-17.8 53.32 53.32 0 0 1 17.18-12.21 52.76 52.76 0 0 1 22-4.55 53.46 53.46 0 0 1 39.43 16.77 56.45 56.45 0 0 1 11.18 17.8 57.7 57.7 0 0 1 4 21.53 58.49 58.49 0 0 1-3.83 21.31 53.75 53.75 0 0 1-28.46 30 53.3 53.3 0 0 1-22.25 4.57zm-35.81-55.68a43.34 43.34 0 0 0 2.79 15.73 40.13 40.13 0 0 0 7.66 12.63 36.11 36.11 0 0 0 11.38 8.49 33 33 0 0 0 27.95 0 36.61 36.61 0 0 0 11.49-8.59 40.15 40.15 0 0 0 7.76-12.83 44.17 44.17 0 0 0 2.79-15.84 43.61 43.61 0 0 0-2.79-15.63 40.21 40.21 0 0 0-7.76-12.83 36.67 36.67 0 0 0-11.49-8.59 32.09 32.09 0 0 0-14-3.1 31.24 31.24 0 0 0-14 3.21 36.85 36.85 0 0 0-11.38 8.69 41.22 41.22 0 0 0-7.66 12.83 44.2 44.2 0 0 0-2.74 15.83zM1195 181V87.23h-14.7V72.95h14.7v-2.28q0-20.08 8.9-31.46t24.22-11.39a46.2 46.2 0 0 1 12.63 1.76 43.2 43.2 0 0 1 11.18 4.86l-4.55 13.46a23.72 23.72 0 0 0-7.14-3.31 29.75 29.75 0 0 0-8.38-1.24q-9.11 0-13.87 6.83T1213.24 70v2.9H1242v14.33h-28.77V181z" transform="translate(-129.4 -27.82)"/></svg>
